<?xml version="1.0" encoding="utf-8"?>
<!-- Generator: Adobe Illustrator 16.0.0, SVG Export Plug-In . SVG Version: 6.00 Build 0)  -->
<!DOCTYPE svg PUBLIC "-//W3C//DTD SVG 1.1//EN" "http://www.w3.org/Graphics/SVG/1.1/DTD/svg11.dtd">
<svg version="1.1" id="Layer_1" xmlns="http://www.w3.org/2000/svg" xmlns:xlink="http://www.w3.org/1999/xlink" x="0px" y="0px"
	 width="126.637px" height="126.412px" viewBox="0 0 126.637 126.412" enable-background="new 0 0 126.637 126.412"
	 xml:space="preserve">
<g>
	<path fill="#FEF6A7" d="M62.273,3.794C28.995,3.794,2.02,30.772,2.02,64.047c0,33.278,26.975,60.253,60.253,60.253
		c33.275,0,60.25-26.976,60.25-60.253l0.007-5.71V3.802H62.273"/>
</g>
<g>
	<g>
		<path fill="#12BDC9" d="M82.003,29.362l-5.065,6.074c-1.253-1.117-2.559-2.165-3.946-3.16c-1.392-0.981-2.862-1.838-4.387-2.561
			c-1.539-0.707-3.103-1.279-4.712-1.702c-1.62-0.407-3.252-0.612-4.915-0.612c-3.609,0-7,0.639-10.17,1.934
			c-3.173,1.292-5.952,3.117-8.322,5.486c-2.383,2.357-4.26,5.202-5.635,8.537c-1.362,3.338-2.056,7.04-2.056,11.085
			c0,4.019,0.694,7.707,2.056,11.029c1.375,3.337,3.252,6.209,5.635,8.606c2.37,2.383,5.149,4.25,8.322,5.568
			c3.17,1.322,6.561,1.99,10.17,1.99c1.157,0,2.287-0.123,3.431-0.383c1.13-0.259,2.247-0.599,3.351-1.035
			c1.104-0.42,2.165-0.912,3.199-1.457c1.034-0.543,2.056-1.102,3.05-1.673v27.214c-0.013,0.096-0.025,0.189-0.025,0.285
			c0,3.596,2.941,6.523,6.59,6.523c3.636,0,6.576-2.915,6.59-6.51v-75.24H82.003z M70.976,59.646
			c-0.682,1.675-1.62,3.16-2.807,4.452c-1.17,1.279-2.559,2.33-4.138,3.106c-1.58,0.79-3.255,1.17-5.053,1.17
			c-1.785,0-3.471-0.314-5.051-0.926c-1.58-0.627-2.941-1.526-4.114-2.709c-1.157-1.187-2.083-2.641-2.75-4.386
			c-0.667-1.729-1.008-3.702-1.008-5.909c0-2.139,0.34-4.059,1.008-5.774c0.667-1.702,1.593-3.159,2.75-4.37
			c1.173-1.213,2.534-2.151,4.114-2.806c1.58-0.654,3.266-0.981,5.051-0.981c1.798,0,3.473,0.396,5.053,1.173
			c1.58,0.79,2.968,1.825,4.138,3.117c1.187,1.295,2.125,2.779,2.807,4.452c0.68,1.675,1.033,3.404,1.033,5.189
			C72.009,56.228,71.655,57.97,70.976,59.646z"/>
		<path fill="#025B68" d="M85.126,79.823h20.447c0,0-20.447,3.202-20.447,25.664"/>
	</g>
</g>
</svg>
