<?xml version="1.0" encoding="utf-8"?>
<!-- Generator: Adobe Illustrator 16.0.0, SVG Export Plug-In . SVG Version: 6.00 Build 0)  -->
<!DOCTYPE svg PUBLIC "-//W3C//DTD SVG 1.1//EN" "http://www.w3.org/Graphics/SVG/1.1/DTD/svg11.dtd">
<svg version="1.1" id="Layer_1" xmlns="http://www.w3.org/2000/svg" xmlns:xlink="http://www.w3.org/1999/xlink" x="0px" y="0px"
	 width="300px" height="99.333px" viewBox="0 0 300 99.333" enable-background="new 0 0 300 99.333" xml:space="preserve">
<g>
	<g>
		<g>
			<path fill="#F6921E" d="M37.174,9.92H22.952L5.45,67.508h11.881l3.597-11.76h18.107l3.596,11.76h12.045L37.174,9.92z
				 M24.108,45.309l5.874-18.987l5.873,18.987H24.108z"/>
			<path fill="#F6921E" d="M137.14,62.675c-0.851,0.772-1.76,1.503-2.727,2.185c-0.967,0.684-1.979,1.275-3.036,1.779
				c-1.058,0.503-2.146,0.902-3.268,1.198c-1.121,0.297-2.262,0.444-3.423,0.444c-2.552,0-4.949-0.45-7.193-1.354
				c-2.244-0.901-4.209-2.185-5.897-3.848c-1.689-1.663-3.017-3.687-3.983-6.071c-0.967-2.384-1.45-5.06-1.45-8.025V26.089h10.519
				v22.895c0,1.393,0.213,2.637,0.638,3.732c0.425,1.097,1,2.018,1.722,2.765c0.722,0.75,1.566,1.315,2.533,1.702
				s2.004,0.58,3.113,0.58c1.083,0,2.108-0.252,3.075-0.754c0.966-0.503,1.812-1.166,2.533-1.992
				c0.722-0.825,1.29-1.759,1.702-2.804c0.413-1.044,0.619-2.12,0.619-3.229V26.089h10.559v41.419h-2.552L137.14,62.675z"/>
			<path fill="#F6921E" d="M188.693,37.642c-1.11-2.662-2.617-4.983-4.52-6.941c-0.243-0.243-0.484-0.484-0.738-0.715
				c-0.087-0.088-0.186-0.176-0.285-0.252c-0.528-0.43-1.068-0.848-1.629-1.244c-1.121-0.803-2.309-1.496-3.543-2.09
				c-1.23-0.594-2.518-1.056-3.828-1.398c-1.319-0.329-2.639-0.494-3.981-0.494c-2.915,0-5.655,0.527-8.218,1.606
				c-2.574,1.066-4.807,2.563-6.731,4.499c-1.926,1.936-3.432,4.245-4.544,6.941c-1.112,2.695-1.661,5.655-1.661,8.878
				c0,3.453,0.549,6.533,1.661,9.239c1.112,2.707,2.618,4.994,4.544,6.864c1.925,1.871,4.157,3.301,6.731,4.28
				c2.563,0.979,5.303,1.464,8.218,1.464c1.343,0,2.662-0.166,3.96-0.495c1.298-0.343,2.573-0.793,3.807-1.376
				c1.242-0.583,2.42-1.265,3.541-2.047c1.124-0.791,2.189-1.64,3.19-2.54l4.104,5.687h1.583v-21.11
				C190.354,43.231,189.805,40.315,188.693,37.642z M179.861,50.623c-0.562,1.364-1.321,2.552-2.268,3.599
				c-0.955,1.045-2.068,1.891-3.343,2.518c-1.276,0.628-2.64,0.946-4.082,0.946c-1.452,0-2.806-0.242-4.08-0.737
				c-1.276-0.483-2.39-1.21-3.324-2.166c-0.945-0.947-1.682-2.124-2.232-3.532c-0.539-1.408-0.803-3.014-0.803-4.817
				c0-1.804,0.264-3.411,0.803-4.818c0.551-1.398,1.287-2.586,2.232-3.531c0.935-0.957,2.048-1.683,3.324-2.167
				c1.274-0.495,2.628-0.737,4.08-0.737c1.442,0,2.806,0.319,4.082,0.947c1.274,0.638,2.388,1.473,3.343,2.519
				c0.946,1.046,1.706,2.244,2.268,3.597c0.55,1.354,0.824,2.75,0.824,4.192C180.686,47.873,180.411,49.27,179.861,50.623z"/>
			<path fill="#F6921E" d="M240.824,46.432c0,3.248-0.555,6.214-1.663,8.895c-1.109,2.683-2.617,4.984-4.525,6.903
				c-1.907,1.921-4.145,3.409-6.71,4.468c-2.565,1.057-5.317,1.584-8.256,1.584c-2.914,0-5.653-0.541-8.219-1.623
				c-2.565-1.084-4.809-2.592-6.729-4.525s-3.436-4.234-4.544-6.902c-1.109-2.669-1.663-5.602-1.663-8.799V9.614h10.597v19.337
				c0.567-0.721,1.257-1.367,2.069-1.935c0.812-0.566,1.688-1.029,2.63-1.392c0.941-0.361,1.914-0.638,2.919-0.832
				c1.006-0.193,1.985-0.29,2.94-0.29c2.938,0,5.69,0.548,8.256,1.644c2.565,1.097,4.803,2.624,6.71,4.583
				c1.908,1.959,3.416,4.274,4.525,6.942C240.27,40.341,240.824,43.26,240.824,46.432z M230.188,46.432
				c0-1.599-0.277-3.087-0.831-4.467c-0.555-1.378-1.31-2.571-2.263-3.577c-0.954-1.005-2.069-1.792-3.345-2.359
				c-1.277-0.566-2.637-0.851-4.08-0.851c-1.444,0-2.805,0.316-4.081,0.947c-1.275,0.633-2.391,1.47-3.345,2.514
				c-0.954,1.044-1.702,2.243-2.243,3.596c-0.542,1.354-0.813,2.753-0.813,4.197c0,1.599,0.271,3.081,0.813,4.447
				c0.541,1.368,1.289,2.552,2.243,3.559c0.954,1.005,2.069,1.798,3.345,2.377c1.276,0.58,2.637,0.871,4.081,0.871
				c1.443,0,2.803-0.291,4.08-0.871c1.275-0.579,2.391-1.372,3.345-2.377c0.953-1.007,1.708-2.19,2.263-3.559
				C229.911,49.513,230.188,48.031,230.188,46.432z"/>
			<path fill="#F6921E" d="M259.117,14.835c0,0.981-0.188,1.895-0.562,2.746c-0.374,0.851-0.884,1.591-1.527,2.224
				c-0.645,0.632-1.399,1.135-2.263,1.508c-0.863,0.374-1.785,0.561-2.765,0.561c-0.98,0-1.901-0.187-2.766-0.561
				c-0.864-0.373-1.611-0.875-2.243-1.508s-1.134-1.373-1.508-2.224c-0.375-0.851-0.561-1.765-0.561-2.746
				c0-0.953,0.186-1.862,0.561-2.727c0.374-0.864,0.876-1.61,1.508-2.243c0.632-0.632,1.379-1.135,2.243-1.508
				c0.864-0.373,1.785-0.561,2.766-0.561c0.979,0,1.901,0.188,2.765,0.561c0.863,0.374,1.618,0.876,2.263,1.508
				c0.644,0.633,1.153,1.379,1.527,2.243C258.93,12.974,259.117,13.883,259.117,14.835z M257.299,67.508h-10.635V26.089h10.635
				V67.508z"/>
			<path fill="#F6921E" d="M286.11,67.508c-2.552,0-4.95-0.482-7.192-1.449c-2.244-0.967-4.209-2.295-5.898-3.984
				c-1.688-1.687-3.017-3.654-3.983-5.897c-0.967-2.242-1.45-4.641-1.45-7.193V36.686h-5.144v-10.52h5.144V9.614h10.52v16.552
				h16.011v10.52h-16.011v12.298c0,1.109,0.206,2.147,0.618,3.113c0.413,0.968,0.98,1.813,1.702,2.534s1.572,1.295,2.553,1.721
				c0.979,0.425,2.023,0.638,3.132,0.638h8.006v10.519H286.11z"/>
		</g>
	</g>
	<path fill="#0EBCC8" d="M95.855,27.517l-4.093,4.906c-1.012-0.903-2.067-1.749-3.188-2.552c-1.124-0.792-2.312-1.485-3.542-2.068
		c-1.245-0.573-2.508-1.035-3.808-1.375c-1.309-0.33-2.627-0.495-3.97-0.495c-2.916,0-5.655,0.517-8.216,1.562
		c-2.564,1.045-4.809,2.52-6.723,4.434c-1.925,1.902-3.442,4.202-4.553,6.896c-1.101,2.695-1.661,5.688-1.661,8.955
		c0,3.246,0.561,6.227,1.661,8.91c1.11,2.696,2.627,5.017,4.553,6.953c1.914,1.925,4.159,3.432,6.723,4.499
		c2.561,1.066,5.3,1.606,8.216,1.606c0.935,0,1.848-0.1,2.771-0.309c0.913-0.209,1.815-0.483,2.707-0.836
		c0.892-0.341,1.749-0.737,2.585-1.178c0.835-0.439,1.661-0.892,2.464-1.353v21.985c-0.011,0.078-0.021,0.154-0.021,0.231
		c0,2.903,2.376,5.27,5.324,5.27c2.938,0,5.313-2.354,5.324-5.259V27.517H95.855z M86.945,51.981
		c-0.55,1.354-1.309,2.554-2.267,3.599c-0.945,1.033-2.067,1.881-3.343,2.509c-1.277,0.638-2.63,0.945-4.082,0.945
		c-1.442,0-2.804-0.253-4.08-0.748c-1.276-0.507-2.377-1.233-3.324-2.189c-0.935-0.958-1.682-2.133-2.222-3.543
		c-0.54-1.396-0.814-2.991-0.814-4.773c0-1.728,0.274-3.278,0.814-4.664c0.54-1.375,1.287-2.553,2.222-3.531
		c0.947-0.979,2.048-1.738,3.324-2.266c1.276-0.528,2.638-0.793,4.08-0.793c1.452,0,2.805,0.319,4.082,0.947
		c1.276,0.638,2.398,1.473,3.343,2.519c0.958,1.045,1.716,2.244,2.267,3.596c0.55,1.354,0.835,2.75,0.835,4.192
		C87.781,49.221,87.495,50.628,86.945,51.981z"/>
	<path fill="#FDF5A6" d="M98.402,68.282h16.518c0,0-16.518,2.588-16.518,20.734"/>
</g>
</svg>
